<svg width="16" height="16" viewBox="0 0 16 16" fill="none" xmlns="http://www.w3.org/2000/svg">
<path d="M4.79953 4.83197C5.50646 4.83197 6.07953 4.2589 6.07953 3.55197C6.07953 2.84505 5.50646 2.27197 4.79953 2.27197C4.09261 2.27197 3.51953 2.84505 3.51953 3.55197C3.51953 4.2589 4.09261 4.83197 4.79953 4.83197Z" fill="#14B8A6"/>
<path d="M4.79953 13.728C5.50646 13.728 6.07953 13.1549 6.07953 12.448C6.07953 11.741 5.50646 11.168 4.79953 11.168C4.09261 11.168 3.51953 11.741 3.51953 12.448C3.51953 13.1549 4.09261 13.728 4.79953 13.728Z" fill="#14B8A6"/>
<path fill-rule="evenodd" clip-rule="evenodd" d="M12.1846 2.72831C12.3945 2.93834 12.5125 3.22316 12.5125 3.52015C12.5125 3.81714 12.3945 4.10197 12.1846 4.31199L8.49642 8.00015L12.1846 11.6883C12.3886 11.8995 12.5015 12.1825 12.499 12.4761C12.4964 12.7698 12.3786 13.0507 12.171 13.2584C11.9633 13.466 11.6824 13.5838 11.3887 13.5864C11.095 13.5889 10.8121 13.476 10.6009 13.272L6.1209 8.79199C5.91095 8.58197 5.79297 8.29714 5.79297 8.00015C5.79297 7.70316 5.91095 7.41833 6.1209 7.20831L10.6009 2.72831C10.8109 2.51834 11.0958 2.40039 11.3927 2.40039C11.6897 2.40039 11.9746 2.51834 12.1846 2.72831Z" fill="#14B8A6"/>
</svg>
